<svg xmlns="http://www.w3.org/2000/svg" width="1000" height="1000" viewBox="0 0 1000 1000">
<defs><linearGradient id="sky" x2="0" y2="1"><stop stop-color="#bcc7ce"/><stop offset=".56" stop-color="#f2f1ec"/><stop offset="1" stop-color="#b5aca0"/></linearGradient><linearGradient id="wall" x2=".8" y2="1"><stop stop-color="#f7f6f2"/><stop offset="1" stop-color="#9aa4a8"/></linearGradient><linearGradient id="glass" x2=".9" y2=".7"><stop stop-color="#5a747f"/><stop offset="1" stop-color="#1f343b"/></linearGradient><linearGradient id="land" x2="0" y2="1"><stop stop-color="#afa99a"/><stop offset="1" stop-color="#6c746b"/></linearGradient></defs>
<path fill="url(#sky)" d="M0 0h1000v1000H0z"/><path d="M0 680L380 610l620 20v370H0z" fill="url(#land)"/><path d="M195 435l570-85 119 80-563 89z" fill="#414c4d"/><path d="M206 450l568-89v317l-568 64z" fill="url(#wall)"/><path d="M235 463l500-75v151l-500 61z" fill="url(#glass)"/><path d="M235 616l500-68v108l-500 66z" fill="#cbc7bd"/><g stroke="#cfcecb" stroke-width="8"><path d="M350 451v147M473 432v151M605 413v152M710 395v149"/></g><path d="M155 778l756-116 89 40v70L170 883z" fill="#7f8986"/><path d="M0 865l1000-130v265H0z" fill="#808478"/><g fill="#59624e"><path d="M72 643q-85-110 4-187 78 23 53 135 90 17 64 68z"/><path d="M875 580q-80-115 9-190 80 18 58 127 73 19 58 77z"/></g><path d="M0 910q350-105 1000-82v172H0z" fill="#777f71" opacity=".8"/></svg>
